<svg width="556" height="188" viewBox="0 0 556 188" fill="none" xmlns="http://www.w3.org/2000/svg">
<g filter="url(#filter0_f_2318_14543)">
<path d="M136.316 93.7171C136.316 93.7171 90.7971 97.3357 90.584 68.0769C90.3709 38.8181 39.4731 80.8816 39.1603 37.92C38.8474 -5.04165 0.000469618 8.09051 0.000469618 8.09051" stroke="url(#paint0_linear_2318_14543)"/>
</g>
<g filter="url(#filter1_f_2318_14543)">
<path d="M136.316 94.0017C136.316 94.0017 90.7971 90.3831 90.584 119.642C90.3709 148.901 39.4731 106.837 39.1603 149.799C38.8474 192.76 0.000469618 179.628 0.000469618 179.628" stroke="url(#paint1_linear_2318_14543)"/>
</g>
<g filter="url(#filter2_f_2318_14543)">
<path d="M128.496 93.9519C128.496 93.9519 98.8955 91.5988 98.7569 110.625C98.6183 129.652 65.5202 102.299 65.3167 130.236C65.1133 158.173 39.8516 149.634 39.8516 149.634" stroke="url(#paint2_linear_2318_14543)"/>
</g>
<g filter="url(#filter3_f_2318_14543)">
<path d="M128.496 93.7668C128.496 93.7668 98.8955 96.12 98.7569 77.0934C98.6183 58.0668 65.5202 85.4201 65.3167 57.4827C65.1133 29.5453 39.8516 38.085 39.8516 38.085" stroke="url(#paint3_linear_2318_14543)"/>
</g>
<path d="M136.316 93.7171C136.316 93.7171 90.7971 97.3357 90.584 68.0769C90.3709 38.8181 39.4731 80.8816 39.1603 37.92C38.8474 -5.04165 0.000469618 8.09051 0.000469618 8.09051" stroke="url(#paint4_linear_2318_14543)"/>
<path d="M136.316 94.0017C136.316 94.0017 90.7971 90.3831 90.584 119.642C90.3709 148.901 39.4731 106.837 39.1603 149.799C38.8474 192.76 0.000469618 179.628 0.000469618 179.628" stroke="url(#paint5_linear_2318_14543)"/>
<path d="M128.496 93.9519C128.496 93.9519 98.8955 91.5988 98.7569 110.625C98.6183 129.652 65.5202 102.299 65.3167 130.236C65.1133 158.173 39.8516 149.634 39.8516 149.634" stroke="url(#paint6_linear_2318_14543)"/>
<path d="M128.496 93.7668C128.496 93.7668 98.8955 96.12 98.7569 77.0934C98.6183 58.0668 65.5202 85.4201 65.3167 57.4827C65.1133 29.5453 39.8516 38.085 39.8516 38.085" stroke="url(#paint7_linear_2318_14543)"/>
<g filter="url(#filter4_f_2318_14543)">
<line x1="125.812" y1="93.8359" x2="427.997" y2="93.8359" stroke="#A67102" stroke-width="1.5"/>
</g>
<line x1="125.812" y1="93.8359" x2="427.997" y2="93.8359" stroke="#A67102" stroke-width="1.5"/>
<g filter="url(#filter5_f_2318_14543)">
<path d="M413.133 94.0017C413.133 94.0017 458.652 90.3831 458.865 119.642C459.078 148.901 509.976 106.837 510.289 149.799C510.602 192.76 549.449 179.628 549.449 179.628" stroke="url(#paint8_linear_2318_14543)"/>
</g>
<g filter="url(#filter6_f_2318_14543)">
<path d="M413.133 93.7171C413.133 93.7171 458.652 97.3357 458.865 68.0769C459.078 38.8181 509.976 80.8816 510.289 37.92C510.602 -5.04165 549.449 8.09051 549.449 8.09051" stroke="url(#paint9_linear_2318_14543)"/>
</g>
<g filter="url(#filter7_f_2318_14543)">
<path d="M420.953 93.7668C420.953 93.7668 450.554 96.12 450.692 77.0934C450.831 58.0668 483.929 85.4201 484.133 57.4827C484.336 29.5453 509.598 38.085 509.598 38.085" stroke="url(#paint10_linear_2318_14543)"/>
</g>
<g filter="url(#filter8_f_2318_14543)">
<path d="M420.953 93.9519C420.953 93.9519 450.554 91.5988 450.692 110.625C450.831 129.652 483.929 102.299 484.133 130.236C484.336 158.173 509.598 149.634 509.598 149.634" stroke="url(#paint11_linear_2318_14543)"/>
</g>
<path d="M413.133 94.0017C413.133 94.0017 458.652 90.3831 458.865 119.642C459.078 148.901 509.976 106.837 510.289 149.799C510.602 192.76 549.449 179.628 549.449 179.628" stroke="url(#paint12_linear_2318_14543)"/>
<path d="M413.133 93.7171C413.133 93.7171 458.652 97.3357 458.865 68.0769C459.078 38.8181 509.976 80.8816 510.289 37.92C510.602 -5.04165 549.449 8.09051 549.449 8.09051" stroke="url(#paint13_linear_2318_14543)"/>
<path d="M420.953 93.7668C420.953 93.7668 450.554 96.12 450.692 77.0934C450.831 58.0668 483.929 85.4201 484.133 57.4827C484.336 29.5453 509.598 38.085 509.598 38.085" stroke="url(#paint14_linear_2318_14543)"/>
<path d="M420.953 93.9519C420.953 93.9519 450.554 91.5988 450.692 110.625C450.831 129.652 483.929 102.299 484.133 130.236C484.336 158.173 509.598 149.634 509.598 149.634" stroke="url(#paint15_linear_2318_14543)"/>
<g filter="url(#filter9_d_2318_14543)">
<g clip-path="url(#clip0_2318_14543)">
<rect x="155.109" y="52.9961" width="75.4004" height="75.4004" rx="15" fill="#0B0706"/>
<g filter="url(#filter10_f_2318_14543)">
<ellipse cx="29.1631" cy="17.7622" rx="29.1631" ry="17.7622" transform="matrix(1 0 0 -1 163.645 135.002)" fill="#A67102"/>
</g>
<g filter="url(#filter11_f_2318_14543)">
<ellipse cx="192.808" cy="60.4126" rx="29.1631" ry="17.7622" fill="#A67102"/>
</g>
<g filter="url(#filter12_f_2318_14543)">
<ellipse cx="192.808" cy="43.4751" rx="29.1631" ry="14.1782" fill="white"/>
</g>
<g filter="url(#filter13_f_2318_14543)">
<ellipse cx="29.1631" cy="14.1782" rx="29.1631" ry="14.1782" transform="matrix(1 0 0 -1 163.645 151.355)" fill="white"/>
</g>
<g filter="url(#filter14_i_2318_14543)">
<path d="M193.001 91.1178C195.251 91.1178 197.599 90.8884 200.043 90.4295C202.487 89.9706 204.585 89.3667 206.335 88.6178V105.285C204.668 106.035 202.64 106.639 200.251 107.098C197.862 107.557 195.446 107.786 193.001 107.785C190.557 107.783 188.14 107.554 185.751 107.096C183.362 106.638 181.335 106.035 179.668 105.285V88.6178C181.418 89.3678 183.515 89.9723 185.96 90.4312C188.404 90.8901 190.751 91.1189 193.001 91.1178ZM193.001 74.4512C194.835 74.4512 196.404 75.1039 197.71 76.4095C199.015 77.7151 199.668 79.2845 199.668 81.1178C199.668 82.9512 199.015 84.5206 197.71 85.8262C196.404 87.1317 194.835 87.7845 193.001 87.7845C191.168 87.7845 189.599 87.1317 188.293 85.8262C186.987 84.5206 186.335 82.9512 186.335 81.1178C186.335 79.2845 186.987 77.7151 188.293 76.4095C189.599 75.1039 191.168 74.4512 193.001 74.4512Z" fill="white"/>
</g>
<g filter="url(#filter15_if_2318_14543)">
<path d="M193.001 91.1178C195.251 91.1178 197.599 90.8884 200.043 90.4295C202.487 89.9706 204.585 89.3667 206.335 88.6178V105.285C204.668 106.035 202.64 106.639 200.251 107.098C197.862 107.557 195.446 107.786 193.001 107.785C190.557 107.783 188.14 107.554 185.751 107.096C183.362 106.638 181.335 106.035 179.668 105.285V88.6178C181.418 89.3678 183.515 89.9723 185.96 90.4312C188.404 90.8901 190.751 91.1189 193.001 91.1178ZM193.001 74.4512C194.835 74.4512 196.404 75.1039 197.71 76.4095C199.015 77.7151 199.668 79.2845 199.668 81.1178C199.668 82.9512 199.015 84.5206 197.71 85.8262C196.404 87.1317 194.835 87.7845 193.001 87.7845C191.168 87.7845 189.599 87.1317 188.293 85.8262C186.987 84.5206 186.335 82.9512 186.335 81.1178C186.335 79.2845 186.987 77.7151 188.293 76.4095C189.599 75.1039 191.168 74.4512 193.001 74.4512Z" fill="white"/>
</g>
</g>
<rect x="155.609" y="53.4961" width="74.4004" height="74.4004" rx="37.2002" stroke="url(#paint16_linear_2318_14543)" shape-rendering="crispEdges"/>
</g>
<g filter="url(#filter16_d_2318_14543)">
<g clip-path="url(#clip1_2318_14543)">
<rect x="292.004" y="38.0156" width="104.998" height="104.998" rx="15" fill="#0B0706"/>
<g filter="url(#filter17_f_2318_14543)">
<ellipse cx="344.698" cy="46.9321" rx="29.1631" ry="17.7622" fill="#A67102"/>
</g>
<g filter="url(#filter18_f_2318_14543)">
<ellipse cx="29.1631" cy="17.7622" rx="29.1631" ry="17.7622" transform="matrix(1 0 0 -1 315.535 151.523)" fill="#A67102"/>
</g>
<g filter="url(#filter19_f_2318_14543)">
<ellipse cx="344.698" cy="29.9946" rx="29.1631" ry="14.1782" fill="white"/>
</g>
<g filter="url(#filter20_f_2318_14543)">
<ellipse cx="29.1631" cy="14.1782" rx="29.1631" ry="14.1782" transform="matrix(1 0 0 -1 315.535 160.875)" fill="white"/>
</g>
<g clip-path="url(#clip2_2318_14543)" filter="url(#filter21_i_2318_14543)">
<path d="M345 64.1172C346.768 64.1172 348.464 64.8152 349.714 66.0576C350.964 67.3 351.667 68.9851 351.667 70.7422C351.667 72.4992 350.964 74.1843 349.714 75.4268C348.464 76.6692 346.768 77.3672 345 77.3672C343.232 77.3672 341.536 76.6692 340.286 75.4268C339.036 74.1843 338.333 72.4992 338.333 70.7422C338.333 68.9851 339.036 67.3 340.286 66.0576C341.536 64.8152 343.232 64.1172 345 64.1172ZM355 96.4141C355 99.002 353.677 101.279 351.667 102.615V107.18H338.333V102.615C336.323 101.279 335 99.002 335 96.4141V92.2734C335 86.7871 339.479 82.3359 345 82.3359C350.521 82.3359 355 86.7871 355 92.2734V96.4141ZM356.667 107.18V104.354C358.74 102.025 360 98.9502 360 95.5859V92.2734C360 89.5096 359.24 86.932 357.927 84.7064C359.083 84.2406 360.344 83.9922 361.667 83.9922C367.188 83.9922 371.667 88.4434 371.667 93.9297V97.2422C371.667 99.6955 370.323 101.838 368.333 102.977V107.18H356.667ZM321.667 102.977C319.677 101.838 318.333 99.6955 318.333 97.2422V93.9297C318.333 88.4434 322.812 83.9922 328.333 83.9922C329.656 83.9922 330.917 84.251 332.073 84.7064C330.76 86.9217 330 89.5096 330 92.2734V95.5859C330 98.9502 331.26 102.014 333.333 104.354V107.18H321.667V102.977ZM328.333 67.4297C329.099 67.4297 329.858 67.5796 330.566 67.8709C331.273 68.1623 331.916 68.5893 332.458 69.1276C333 69.6658 333.429 70.3049 333.723 71.0082C334.016 71.7115 334.167 72.4653 334.167 73.2266C334.167 73.9878 334.016 74.7416 333.723 75.4449C333.429 76.1482 333 76.7873 332.458 77.3256C331.916 77.8639 331.273 78.2909 330.566 78.5822C329.858 78.8735 329.099 79.0234 328.333 79.0234C327.567 79.0234 326.809 78.8735 326.101 78.5822C325.393 78.2909 324.75 77.8639 324.209 77.3256C323.667 76.7873 323.237 76.1482 322.944 75.4449C322.651 74.7416 322.5 73.9878 322.5 73.2266C322.5 72.4653 322.651 71.7115 322.944 71.0082C323.237 70.3049 323.667 69.6658 324.209 69.1276C324.75 68.5893 325.393 68.1623 326.101 67.8709C326.809 67.5796 327.567 67.4297 328.333 67.4297ZM361.667 67.4297C362.433 67.4297 363.191 67.5796 363.899 67.8709C364.607 68.1623 365.25 68.5893 365.791 69.1276C366.333 69.6658 366.763 70.3049 367.056 71.0082C367.349 71.7115 367.5 72.4653 367.5 73.2266C367.5 73.9878 367.349 74.7416 367.056 75.4449C366.763 76.1482 366.333 76.7873 365.791 77.3256C365.25 77.8639 364.607 78.2909 363.899 78.5822C363.191 78.8735 362.433 79.0234 361.667 79.0234C360.901 79.0234 360.142 78.8735 359.434 78.5822C358.727 78.2909 358.084 77.8639 357.542 77.3256C357 76.7873 356.571 76.1482 356.277 75.4449C355.984 74.7416 355.833 73.9878 355.833 73.2266C355.833 72.4653 355.984 71.7115 356.277 71.0082C356.571 70.3049 357 69.6658 357.542 69.1276C358.084 68.5893 358.727 68.1623 359.434 67.8709C360.142 67.5796 360.901 67.4297 361.667 67.4297ZM317.5 112.148H372.5C373.885 112.148 375 113.256 375 114.633C375 116.01 373.885 117.117 372.5 117.117H317.5C316.115 117.117 315 116.01 315 114.633C315 113.256 316.115 112.148 317.5 112.148Z" fill="white"/>
</g>
<g clip-path="url(#clip3_2318_14543)" filter="url(#filter22_if_2318_14543)">
<path d="M345 64.1172C346.768 64.1172 348.464 64.8152 349.714 66.0576C350.964 67.3 351.667 68.9851 351.667 70.7422C351.667 72.4992 350.964 74.1843 349.714 75.4268C348.464 76.6692 346.768 77.3672 345 77.3672C343.232 77.3672 341.536 76.6692 340.286 75.4268C339.036 74.1843 338.333 72.4992 338.333 70.7422C338.333 68.9851 339.036 67.3 340.286 66.0576C341.536 64.8152 343.232 64.1172 345 64.1172ZM355 96.4141C355 99.002 353.677 101.279 351.667 102.615V107.18H338.333V102.615C336.323 101.279 335 99.002 335 96.4141V92.2734C335 86.7871 339.479 82.3359 345 82.3359C350.521 82.3359 355 86.7871 355 92.2734V96.4141ZM356.667 107.18V104.354C358.74 102.025 360 98.9502 360 95.5859V92.2734C360 89.5096 359.24 86.932 357.927 84.7064C359.083 84.2406 360.344 83.9922 361.667 83.9922C367.188 83.9922 371.667 88.4434 371.667 93.9297V97.2422C371.667 99.6955 370.323 101.838 368.333 102.977V107.18H356.667ZM321.667 102.977C319.677 101.838 318.333 99.6955 318.333 97.2422V93.9297C318.333 88.4434 322.812 83.9922 328.333 83.9922C329.656 83.9922 330.917 84.251 332.073 84.7064C330.76 86.9217 330 89.5096 330 92.2734V95.5859C330 98.9502 331.26 102.014 333.333 104.354V107.18H321.667V102.977ZM328.333 67.4297C329.099 67.4297 329.858 67.5796 330.566 67.8709C331.273 68.1623 331.916 68.5893 332.458 69.1276C333 69.6658 333.429 70.3049 333.723 71.0082C334.016 71.7115 334.167 72.4653 334.167 73.2266C334.167 73.9878 334.016 74.7416 333.723 75.4449C333.429 76.1482 333 76.7873 332.458 77.3256C331.916 77.8639 331.273 78.2909 330.566 78.5822C329.858 78.8735 329.099 79.0234 328.333 79.0234C327.567 79.0234 326.809 78.8735 326.101 78.5822C325.393 78.2909 324.75 77.8639 324.209 77.3256C323.667 76.7873 323.237 76.1482 322.944 75.4449C322.651 74.7416 322.5 73.9878 322.5 73.2266C322.5 72.4653 322.651 71.7115 322.944 71.0082C323.237 70.3049 323.667 69.6658 324.209 69.1276C324.75 68.5893 325.393 68.1623 326.101 67.8709C326.809 67.5796 327.567 67.4297 328.333 67.4297ZM361.667 67.4297C362.433 67.4297 363.191 67.5796 363.899 67.8709C364.607 68.1623 365.25 68.5893 365.791 69.1276C366.333 69.6658 366.763 70.3049 367.056 71.0082C367.349 71.7115 367.5 72.4653 367.5 73.2266C367.5 73.9878 367.349 74.7416 367.056 75.4449C366.763 76.1482 366.333 76.7873 365.791 77.3256C365.25 77.8639 364.607 78.2909 363.899 78.5822C363.191 78.8735 362.433 79.0234 361.667 79.0234C360.901 79.0234 360.142 78.8735 359.434 78.5822C358.727 78.2909 358.084 77.8639 357.542 77.3256C357 76.7873 356.571 76.1482 356.277 75.4449C355.984 74.7416 355.833 73.9878 355.833 73.2266C355.833 72.4653 355.984 71.7115 356.277 71.0082C356.571 70.3049 357 69.6658 357.542 69.1276C358.084 68.5893 358.727 68.1623 359.434 67.8709C360.142 67.5796 360.901 67.4297 361.667 67.4297ZM317.5 112.148H372.5C373.885 112.148 375 113.256 375 114.633C375 116.01 373.885 117.117 372.5 117.117H317.5C316.115 117.117 315 116.01 315 114.633C315 113.256 316.115 112.148 317.5 112.148Z" fill="white"/>
</g>
</g>
<rect x="292.5" y="40.0156" width="104" height="101" rx="50.5" stroke="url(#paint17_linear_2318_14543)" shape-rendering="crispEdges"/>
</g>
<g style="mix-blend-mode:plus-lighter" filter="url(#filter23_f_2318_14543)">
<path d="M145 85.5771C80.7581 85.5771 49.8311 88.9497 49.8311 91.0475C49.8311 93.1452 80.7581 93.1738 145 93.1738C209.242 93.1738 261.32 91.4733 261.32 89.3755C261.32 87.2777 209.242 85.5771 145 85.5771Z" fill="#A67102"/>
</g>
<g style="mix-blend-mode:plus-lighter" filter="url(#filter24_f_2318_14543)">
<path d="M175.837 67.4929C240.079 67.4929 224.563 94.3746 224.563 96.4723C224.563 98.5701 240.079 122.117 175.837 122.117C114.745 92.6375 22.8906 95.1421 22.8906 93.0443C22.8906 90.9465 113.514 93.0443 175.837 67.4929Z" fill="#A67102" fill-opacity="0.5"/>
</g>
<g style="mix-blend-mode:plus-lighter" filter="url(#filter25_f_2318_14543)">
<path d="M396.555 82.1982C460.797 82.1982 484.506 85.7412 484.506 87.8389C484.506 89.9367 460.797 89.7949 396.555 89.7949C332.313 89.7949 280.234 88.0943 280.234 85.9965C280.234 83.8988 332.313 82.1982 396.555 82.1982Z" fill="#A67102"/>
</g>
<g style="mix-blend-mode:plus-lighter" filter="url(#filter26_f_2318_14543)">
<path d="M340.922 50.1511C276.686 49.2325 288.96 87.1107 288.911 90.5172C288.863 93.9236 275.418 137.933 339.653 138.852C401.423 91.8554 498.667 96.9242 498.716 93.5178C498.765 90.1113 408.843 88.1267 340.922 50.1511Z" fill="#A67102" fill-opacity="0.5"/>
</g>
<g filter="url(#filter27_f_2318_14543)">
<path d="M239.859 93.7989H230.505M233.954 97.0404L230.505 93.7989M230.505 93.7989L233.954 90.1309" stroke="white" stroke-width="1.5" stroke-linecap="round"/>
</g>
<path d="M239.859 93.7852H230.505M233.954 97.0268L230.505 93.7852M230.505 93.7852L233.954 90.1172" stroke="white" stroke-width="1.5" stroke-linecap="round"/>
<g filter="url(#filter28_f_2318_14543)">
<path d="M283.16 93.7989H292.514M289.065 97.0404L292.514 93.7989M292.514 93.7989L289.065 90.1309" stroke="white" stroke-width="1.5" stroke-linecap="round"/>
</g>
<path d="M283.16 93.7852H292.514M289.065 97.0268L292.514 93.7852M292.514 93.7852L289.065 90.1172" stroke="white" stroke-width="1.5" stroke-linecap="round"/>
<defs>
<filter id="filter0_f_2318_14543" x="-5.86016" y="0.00117207" width="147.916" height="100.058" filterUnits="userSpaceOnUse" color-interpolation-filters="sRGB">
<feFlood flood-opacity="0" result="BackgroundImageFix"/>
<feBlend mode="normal" in="SourceGraphic" in2="BackgroundImageFix" result="shape"/>
<feGaussianBlur stdDeviation="2.85" result="effect1_foregroundBlur_2318_14543"/>
</filter>
<filter id="filter1_f_2318_14543" x="-5.86016" y="87.6594" width="147.916" height="100.058" filterUnits="userSpaceOnUse" color-interpolation-filters="sRGB">
<feFlood flood-opacity="0" result="BackgroundImageFix"/>
<feBlend mode="normal" in="SourceGraphic" in2="BackgroundImageFix" result="shape"/>
<feGaussianBlur stdDeviation="2.85" result="effect1_foregroundBlur_2318_14543"/>
</filter>
<filter id="filter2_f_2318_14543" x="33.9914" y="87.6594" width="100.244" height="69.4039" filterUnits="userSpaceOnUse" color-interpolation-filters="sRGB">
<feFlood flood-opacity="0" result="BackgroundImageFix"/>
<feBlend mode="normal" in="SourceGraphic" in2="BackgroundImageFix" result="shape"/>
<feGaussianBlur stdDeviation="2.85" result="effect1_foregroundBlur_2318_14543"/>
</filter>
<filter id="filter3_f_2318_14543" x="33.9914" y="30.6555" width="100.244" height="69.4039" filterUnits="userSpaceOnUse" color-interpolation-filters="sRGB">
<feFlood flood-opacity="0" result="BackgroundImageFix"/>
<feBlend mode="normal" in="SourceGraphic" in2="BackgroundImageFix" result="shape"/>
<feGaussianBlur stdDeviation="2.85" result="effect1_foregroundBlur_2318_14543"/>
</filter>
<filter id="filter4_f_2318_14543" x="121.812" y="89.0859" width="310.184" height="9.5" filterUnits="userSpaceOnUse" color-interpolation-filters="sRGB">
<feFlood flood-opacity="0" result="BackgroundImageFix"/>
<feBlend mode="normal" in="SourceGraphic" in2="BackgroundImageFix" result="shape"/>
<feGaussianBlur stdDeviation="2" result="effect1_foregroundBlur_2318_14543"/>
</filter>
<filter id="filter5_f_2318_14543" x="407.394" y="87.6594" width="147.916" height="100.058" filterUnits="userSpaceOnUse" color-interpolation-filters="sRGB">
<feFlood flood-opacity="0" result="BackgroundImageFix"/>
<feBlend mode="normal" in="SourceGraphic" in2="BackgroundImageFix" result="shape"/>
<feGaussianBlur stdDeviation="2.85" result="effect1_foregroundBlur_2318_14543"/>
</filter>
<filter id="filter6_f_2318_14543" x="407.394" y="0.00117207" width="147.916" height="100.058" filterUnits="userSpaceOnUse" color-interpolation-filters="sRGB">
<feFlood flood-opacity="0" result="BackgroundImageFix"/>
<feBlend mode="normal" in="SourceGraphic" in2="BackgroundImageFix" result="shape"/>
<feGaussianBlur stdDeviation="2.85" result="effect1_foregroundBlur_2318_14543"/>
</filter>
<filter id="filter7_f_2318_14543" x="415.214" y="30.6555" width="100.244" height="69.4039" filterUnits="userSpaceOnUse" color-interpolation-filters="sRGB">
<feFlood flood-opacity="0" result="BackgroundImageFix"/>
<feBlend mode="normal" in="SourceGraphic" in2="BackgroundImageFix" result="shape"/>
<feGaussianBlur stdDeviation="2.85" result="effect1_foregroundBlur_2318_14543"/>
</filter>
<filter id="filter8_f_2318_14543" x="415.214" y="87.6594" width="100.244" height="69.4039" filterUnits="userSpaceOnUse" color-interpolation-filters="sRGB">
<feFlood flood-opacity="0" result="BackgroundImageFix"/>
<feBlend mode="normal" in="SourceGraphic" in2="BackgroundImageFix" result="shape"/>
<feGaussianBlur stdDeviation="2.85" result="effect1_foregroundBlur_2318_14543"/>
</filter>
<filter id="filter9_d_2318_14543" x="124.609" y="22.4961" width="136.402" height="136.4" filterUnits="userSpaceOnUse" color-interpolation-filters="sRGB">
<feFlood flood-opacity="0" result="BackgroundImageFix"/>
<feColorMatrix in="SourceAlpha" type="matrix" values="0 0 0 0 0 0 0 0 0 0 0 0 0 0 0 0 0 0 127 0" result="hardAlpha"/>
<feOffset/>
<feGaussianBlur stdDeviation="15.25"/>
<feComposite in2="hardAlpha" operator="out"/>
<feColorMatrix type="matrix" values="0 0 0 0 0.960784 0 0 0 0 0.32549 0 0 0 0 0.0117647 0 0 0 0.5 0"/>
<feBlend mode="normal" in2="BackgroundImageFix" result="effect1_dropShadow_2318_14543"/>
<feBlend mode="normal" in="SourceGraphic" in2="effect1_dropShadow_2318_14543" result="shape"/>
</filter>
<filter id="filter10_f_2318_14543" x="138.345" y="74.1766" width="108.928" height="86.1254" filterUnits="userSpaceOnUse" color-interpolation-filters="sRGB">
<feFlood flood-opacity="0" result="BackgroundImageFix"/>
<feBlend mode="normal" in="SourceGraphic" in2="BackgroundImageFix" result="shape"/>
<feGaussianBlur stdDeviation="12.65" result="effect1_foregroundBlur_2318_14543"/>
</filter>
<filter id="filter11_f_2318_14543" x="138.345" y="17.3504" width="108.928" height="86.1254" filterUnits="userSpaceOnUse" color-interpolation-filters="sRGB">
<feFlood flood-opacity="0" result="BackgroundImageFix"/>
<feBlend mode="normal" in="SourceGraphic" in2="BackgroundImageFix" result="shape"/>
<feGaussianBlur stdDeviation="12.65" result="effect1_foregroundBlur_2318_14543"/>
</filter>
<filter id="filter12_f_2318_14543" x="150.645" y="16.2969" width="84.3281" height="54.3555" filterUnits="userSpaceOnUse" color-interpolation-filters="sRGB">
<feFlood flood-opacity="0" result="BackgroundImageFix"/>
<feBlend mode="normal" in="SourceGraphic" in2="BackgroundImageFix" result="shape"/>
<feGaussianBlur stdDeviation="6.5" result="effect1_foregroundBlur_2318_14543"/>
</filter>
<filter id="filter13_f_2318_14543" x="150.645" y="110" width="84.3281" height="54.3555" filterUnits="userSpaceOnUse" color-interpolation-filters="sRGB">
<feFlood flood-opacity="0" result="BackgroundImageFix"/>
<feBlend mode="normal" in="SourceGraphic" in2="BackgroundImageFix" result="shape"/>
<feGaussianBlur stdDeviation="6.5" result="effect1_foregroundBlur_2318_14543"/>
</filter>
<filter id="filter14_i_2318_14543" x="173" y="71.1172" width="40" height="44" filterUnits="userSpaceOnUse" color-interpolation-filters="sRGB">
<feFlood flood-opacity="0" result="BackgroundImageFix"/>
<feBlend mode="normal" in="SourceGraphic" in2="BackgroundImageFix" result="shape"/>
<feColorMatrix in="SourceAlpha" type="matrix" values="0 0 0 0 0 0 0 0 0 0 0 0 0 0 0 0 0 0 127 0" result="hardAlpha"/>
<feOffset dy="4"/>
<feGaussianBlur stdDeviation="2"/>
<feComposite in2="hardAlpha" operator="arithmetic" k2="-1" k3="1"/>
<feColorMatrix type="matrix" values="0 0 0 0 1 0 0 0 0 1 0 0 0 0 1 0 0 0 0.25 0"/>
<feBlend mode="normal" in2="shape" result="effect1_innerShadow_2318_14543"/>
</filter>
<filter id="filter15_if_2318_14543" x="169" y="67.1172" width="48" height="48" filterUnits="userSpaceOnUse" color-interpolation-filters="sRGB">
<feFlood flood-opacity="0" result="BackgroundImageFix"/>
<feBlend mode="normal" in="SourceGraphic" in2="BackgroundImageFix" result="shape"/>
<feColorMatrix in="SourceAlpha" type="matrix" values="0 0 0 0 0 0 0 0 0 0 0 0 0 0 0 0 0 0 127 0" result="hardAlpha"/>
<feOffset dy="4"/>
<feGaussianBlur stdDeviation="2"/>
<feComposite in2="hardAlpha" operator="arithmetic" k2="-1" k3="1"/>
<feColorMatrix type="matrix" values="0 0 0 0 1 0 0 0 0 1 0 0 0 0 1 0 0 0 0.25 0"/>
<feBlend mode="normal" in2="shape" result="effect1_innerShadow_2318_14543"/>
<feGaussianBlur stdDeviation="2" result="effect2_foregroundBlur_2318_14543"/>
</filter>
<filter id="filter16_d_2318_14543" x="261.5" y="9.01562" width="166" height="163" filterUnits="userSpaceOnUse" color-interpolation-filters="sRGB">
<feFlood flood-opacity="0" result="BackgroundImageFix"/>
<feColorMatrix in="SourceAlpha" type="matrix" values="0 0 0 0 0 0 0 0 0 0 0 0 0 0 0 0 0 0 127 0" result="hardAlpha"/>
<feOffset/>
<feGaussianBlur stdDeviation="15.25"/>
<feComposite in2="hardAlpha" operator="out"/>
<feColorMatrix type="matrix" values="0 0 0 0 0.960784 0 0 0 0 0.32549 0 0 0 0 0.0117647 0 0 0 0.5 0"/>
<feBlend mode="normal" in2="BackgroundImageFix" result="effect1_dropShadow_2318_14543"/>
<feBlend mode="normal" in="SourceGraphic" in2="effect1_dropShadow_2318_14543" result="shape"/>
</filter>
<filter id="filter17_f_2318_14543" x="290.235" y="3.86992" width="108.928" height="86.1254" filterUnits="userSpaceOnUse" color-interpolation-filters="sRGB">
<feFlood flood-opacity="0" result="BackgroundImageFix"/>
<feBlend mode="normal" in="SourceGraphic" in2="BackgroundImageFix" result="shape"/>
<feGaussianBlur stdDeviation="12.65" result="effect1_foregroundBlur_2318_14543"/>
</filter>
<filter id="filter18_f_2318_14543" x="290.235" y="90.7" width="108.928" height="86.1234" filterUnits="userSpaceOnUse" color-interpolation-filters="sRGB">
<feFlood flood-opacity="0" result="BackgroundImageFix"/>
<feBlend mode="normal" in="SourceGraphic" in2="BackgroundImageFix" result="shape"/>
<feGaussianBlur stdDeviation="12.65" result="effect1_foregroundBlur_2318_14543"/>
</filter>
<filter id="filter19_f_2318_14543" x="302.535" y="2.81641" width="84.3281" height="54.3555" filterUnits="userSpaceOnUse" color-interpolation-filters="sRGB">
<feFlood flood-opacity="0" result="BackgroundImageFix"/>
<feBlend mode="normal" in="SourceGraphic" in2="BackgroundImageFix" result="shape"/>
<feGaussianBlur stdDeviation="6.5" result="effect1_foregroundBlur_2318_14543"/>
</filter>
<filter id="filter20_f_2318_14543" x="302.535" y="119.52" width="84.3281" height="54.3555" filterUnits="userSpaceOnUse" color-interpolation-filters="sRGB">
<feFlood flood-opacity="0" result="BackgroundImageFix"/>
<feBlend mode="normal" in="SourceGraphic" in2="BackgroundImageFix" result="shape"/>
<feGaussianBlur stdDeviation="6.5" result="effect1_foregroundBlur_2318_14543"/>
</filter>
<filter id="filter21_i_2318_14543" x="315" y="64.1172" width="60" height="57" filterUnits="userSpaceOnUse" color-interpolation-filters="sRGB">
<feFlood flood-opacity="0" result="BackgroundImageFix"/>
<feBlend mode="normal" in="SourceGraphic" in2="BackgroundImageFix" result="shape"/>
<feColorMatrix in="SourceAlpha" type="matrix" values="0 0 0 0 0 0 0 0 0 0 0 0 0 0 0 0 0 0 127 0" result="hardAlpha"/>
<feOffset dy="4"/>
<feGaussianBlur stdDeviation="2"/>
<feComposite in2="hardAlpha" operator="arithmetic" k2="-1" k3="1"/>
<feColorMatrix type="matrix" values="0 0 0 0 1 0 0 0 0 1 0 0 0 0 1 0 0 0 0.25 0"/>
<feBlend mode="normal" in2="shape" result="effect1_innerShadow_2318_14543"/>
</filter>
<filter id="filter22_if_2318_14543" x="311" y="60.1172" width="68" height="61" filterUnits="userSpaceOnUse" color-interpolation-filters="sRGB">
<feFlood flood-opacity="0" result="BackgroundImageFix"/>
<feBlend mode="normal" in="SourceGraphic" in2="BackgroundImageFix" result="shape"/>
<feColorMatrix in="SourceAlpha" type="matrix" values="0 0 0 0 0 0 0 0 0 0 0 0 0 0 0 0 0 0 127 0" result="hardAlpha"/>
<feOffset dy="4"/>
<feGaussianBlur stdDeviation="2"/>
<feComposite in2="hardAlpha" operator="arithmetic" k2="-1" k3="1"/>
<feColorMatrix type="matrix" values="0 0 0 0 1 0 0 0 0 1 0 0 0 0 1 0 0 0 0.25 0"/>
<feBlend mode="normal" in2="shape" result="effect1_innerShadow_2318_14543"/>
<feGaussianBlur stdDeviation="2" result="effect2_foregroundBlur_2318_14543"/>
</filter>
<filter id="filter23_f_2318_14543" x="10.532" y="46.2762" width="290.088" height="86.1977" filterUnits="userSpaceOnUse" color-interpolation-filters="sRGB">
<feFlood flood-opacity="0" result="BackgroundImageFix"/>
<feBlend mode="normal" in="SourceGraphic" in2="BackgroundImageFix" result="shape"/>
<feGaussianBlur stdDeviation="19.65" result="effect1_foregroundBlur_2318_14543"/>
</filter>
<filter id="filter24_f_2318_14543" x="-16.4094" y="28.1922" width="281.916" height="133.225" filterUnits="userSpaceOnUse" color-interpolation-filters="sRGB">
<feFlood flood-opacity="0" result="BackgroundImageFix"/>
<feBlend mode="normal" in="SourceGraphic" in2="BackgroundImageFix" result="shape"/>
<feGaussianBlur stdDeviation="19.65" result="effect1_foregroundBlur_2318_14543"/>
</filter>
<filter id="filter25_f_2318_14543" x="240.934" y="42.8973" width="282.873" height="86.1996" filterUnits="userSpaceOnUse" color-interpolation-filters="sRGB">
<feFlood flood-opacity="0" result="BackgroundImageFix"/>
<feBlend mode="normal" in="SourceGraphic" in2="BackgroundImageFix" result="shape"/>
<feGaussianBlur stdDeviation="19.65" result="effect1_foregroundBlur_2318_14543"/>
</filter>
<filter id="filter26_f_2318_14543" x="248.407" y="10.8348" width="289.608" height="167.317" filterUnits="userSpaceOnUse" color-interpolation-filters="sRGB">
<feFlood flood-opacity="0" result="BackgroundImageFix"/>
<feBlend mode="normal" in="SourceGraphic" in2="BackgroundImageFix" result="shape"/>
<feGaussianBlur stdDeviation="19.65" result="effect1_foregroundBlur_2318_14543"/>
</filter>
<filter id="filter27_f_2318_14543" x="225.445" y="85.3809" width="19.1641" height="16.4102" filterUnits="userSpaceOnUse" color-interpolation-filters="sRGB">
<feFlood flood-opacity="0" result="BackgroundImageFix"/>
<feBlend mode="normal" in="SourceGraphic" in2="BackgroundImageFix" result="shape"/>
<feGaussianBlur stdDeviation="2" result="effect1_foregroundBlur_2318_14543"/>
</filter>
<filter id="filter28_f_2318_14543" x="278.41" y="85.3809" width="19.1641" height="16.4102" filterUnits="userSpaceOnUse" color-interpolation-filters="sRGB">
<feFlood flood-opacity="0" result="BackgroundImageFix"/>
<feBlend mode="normal" in="SourceGraphic" in2="BackgroundImageFix" result="shape"/>
<feGaussianBlur stdDeviation="2" result="effect1_foregroundBlur_2318_14543"/>
</filter>
<linearGradient id="paint0_linear_2318_14543" x1="68.1584" y1="93.8594" x2="68.1584" y2="6.2002" gradientUnits="userSpaceOnUse">
<stop stop-color="#A67102"/>
<stop offset="1"/>
</linearGradient>
<linearGradient id="paint1_linear_2318_14543" x1="68.1584" y1="93.8594" x2="68.1584" y2="181.519" gradientUnits="userSpaceOnUse">
<stop stop-color="#A67102"/>
<stop offset="1"/>
</linearGradient>
<linearGradient id="paint2_linear_2318_14543" x1="84.1739" y1="93.8594" x2="84.1739" y2="150.863" gradientUnits="userSpaceOnUse">
<stop stop-color="#A67102"/>
<stop offset="1"/>
</linearGradient>
<linearGradient id="paint3_linear_2318_14543" x1="84.1739" y1="93.8594" x2="84.1739" y2="36.8558" gradientUnits="userSpaceOnUse">
<stop stop-color="#A67102"/>
<stop offset="1"/>
</linearGradient>
<linearGradient id="paint4_linear_2318_14543" x1="68.1584" y1="93.8594" x2="68.1584" y2="6.2002" gradientUnits="userSpaceOnUse">
<stop stop-color="#A67102"/>
<stop offset="1"/>
</linearGradient>
<linearGradient id="paint5_linear_2318_14543" x1="68.1584" y1="93.8594" x2="68.1584" y2="181.519" gradientUnits="userSpaceOnUse">
<stop stop-color="#A67102"/>
<stop offset="1"/>
</linearGradient>
<linearGradient id="paint6_linear_2318_14543" x1="84.1739" y1="93.8594" x2="84.1739" y2="150.863" gradientUnits="userSpaceOnUse">
<stop stop-color="#A67102"/>
<stop offset="1"/>
</linearGradient>
<linearGradient id="paint7_linear_2318_14543" x1="84.1739" y1="93.8594" x2="84.1739" y2="36.8558" gradientUnits="userSpaceOnUse">
<stop stop-color="#A67102"/>
<stop offset="1"/>
</linearGradient>
<linearGradient id="paint8_linear_2318_14543" x1="481.291" y1="93.8594" x2="481.291" y2="181.519" gradientUnits="userSpaceOnUse">
<stop stop-color="#A67102"/>
<stop offset="1"/>
</linearGradient>
<linearGradient id="paint9_linear_2318_14543" x1="481.291" y1="93.8594" x2="481.291" y2="6.2002" gradientUnits="userSpaceOnUse">
<stop stop-color="#A67102"/>
<stop offset="1"/>
</linearGradient>
<linearGradient id="paint10_linear_2318_14543" x1="465.275" y1="93.8594" x2="465.275" y2="36.8558" gradientUnits="userSpaceOnUse">
<stop stop-color="#A67102"/>
<stop offset="1"/>
</linearGradient>
<linearGradient id="paint11_linear_2318_14543" x1="465.275" y1="93.8594" x2="465.275" y2="150.863" gradientUnits="userSpaceOnUse">
<stop stop-color="#A67102"/>
<stop offset="1"/>
</linearGradient>
<linearGradient id="paint12_linear_2318_14543" x1="481.291" y1="93.8594" x2="481.291" y2="181.519" gradientUnits="userSpaceOnUse">
<stop stop-color="#A67102"/>
<stop offset="1"/>
</linearGradient>
<linearGradient id="paint13_linear_2318_14543" x1="481.291" y1="93.8594" x2="481.291" y2="6.2002" gradientUnits="userSpaceOnUse">
<stop stop-color="#A67102"/>
<stop offset="1"/>
</linearGradient>
<linearGradient id="paint14_linear_2318_14543" x1="465.275" y1="93.8594" x2="465.275" y2="36.8558" gradientUnits="userSpaceOnUse">
<stop stop-color="#A67102"/>
<stop offset="1"/>
</linearGradient>
<linearGradient id="paint15_linear_2318_14543" x1="465.275" y1="93.8594" x2="465.275" y2="150.863" gradientUnits="userSpaceOnUse">
<stop stop-color="#A67102"/>
<stop offset="1"/>
</linearGradient>
<linearGradient id="paint16_linear_2318_14543" x1="192.81" y1="52.9961" x2="192.81" y2="128.396" gradientUnits="userSpaceOnUse">
<stop stop-opacity="0"/>
<stop offset="0.485577" stop-color="#666666"/>
<stop offset="1" stop-color="#0B0B0B" stop-opacity="0"/>
</linearGradient>
<linearGradient id="paint17_linear_2318_14543" x1="344.5" y1="39.5156" x2="344.5" y2="141.516" gradientUnits="userSpaceOnUse">
<stop stop-opacity="0"/>
<stop offset="0.485577" stop-color="#666666"/>
<stop offset="1" stop-color="#0B0B0B" stop-opacity="0"/>
</linearGradient>
<clipPath id="clip0_2318_14543">
<rect x="155.109" y="52.9961" width="75.4004" height="75.4004" rx="37.7002" fill="white"/>
</clipPath>
<clipPath id="clip1_2318_14543">
<rect x="292" y="39.5156" width="105" height="102" rx="51" fill="white"/>
</clipPath>
<clipPath id="clip2_2318_14543">
<rect width="60" height="53" fill="white" transform="translate(315 64.1172)"/>
</clipPath>
<clipPath id="clip3_2318_14543">
<rect width="60" height="53" fill="white" transform="translate(315 64.1172)"/>
</clipPath>
</defs>
</svg>
