<svg width="163" height="43" viewBox="0 0 163 43" fill="none" xmlns="http://www.w3.org/2000/svg">
<path d="M31.6604 19.5845C33.0263 18.2307 29.9778 16.7798 27.9841 15.0999C26.2792 13.6635 25.3358 12.8179 25.3202 11.7389C25.2366 5.98542 22.6118 2.73729 20.0249 1.19141C20.1409 1.40698 20.2434 1.63372 20.3326 1.87164C21.5425 5.10972 20.3371 9.06825 16.75 13.6422C16.8515 14.8039 16.9663 16.0649 17.0934 17.4165C19.5844 17.4935 21.8982 18.4184 23.6376 20.0436C25.5187 21.8005 26.5546 24.2154 26.5546 26.8414C26.5546 30.5509 24.494 33.7856 21.4611 35.4588C23.4871 35.9782 24.7806 36.6138 25.958 36.3948C28.6063 35.9022 28.1859 33.589 27.9986 32.3391C27.8124 31.0881 28.5282 30.0963 29.728 29.4786C30.9278 28.8609 30.8029 27.5406 30.0168 27.2122C29.2296 26.8839 27.7889 26.4538 28.3576 25.7278C28.9664 24.9493 30.7014 24.7114 30.9512 23.8602C31.1999 23.008 29.3467 22.5858 29.5262 21.8207C29.7492 20.8645 30.8096 20.4289 31.6604 19.5845Z" fill="white"/>
<path d="M22.8167 20.9301C21.2222 19.4401 19.0702 18.6191 16.7565 18.6191C14.6022 18.6191 11.2035 20.5537 10.4297 24.1861C11.4332 22.0985 13.5864 19.831 16.7565 19.831C20.9669 19.831 24.1403 22.8446 24.1403 26.8411C24.1403 30.9259 20.8286 34.2488 16.7565 34.2488V35.4608C21.4943 35.4608 25.3479 31.5938 25.3479 26.8411C25.3479 24.5547 24.4492 22.4559 22.8167 20.9301Z" fill="white"/>
<mask id="mask0_2165_14367" style="mask-type:luminance" maskUnits="userSpaceOnUse" x="6" y="0" width="14" height="43">
<path d="M6.6875 0H19.8183V42.7608H6.6875V0Z" fill="white"/>
</mask>
<g mask="url(#mask0_2165_14367)">
<path d="M15.5049 13.2643C19.0407 8.88352 20.2851 5.1953 19.2013 2.29677C18.6282 0.764295 17.3815 -0.132628 16.0992 0.0639577C15.0355 0.228152 13.8558 1.19991 13.7342 3.43831C13.6629 4.7541 13.8402 7.914 14.2616 12.8756C13.9004 13.3134 13.5324 13.7524 13.1745 14.1779C9.95311 18.0214 6.91016 21.6504 6.91016 26.4456C6.91016 29.8021 9.3889 35.0518 15.9744 35.4383C15.7982 39.5241 14.9719 40.7908 14.6296 41.1415C14.0899 41.6821 13.2135 41.6821 12.6738 41.1415C12.4129 40.8801 12.2691 40.5316 12.2691 40.1608C12.2691 38.969 13.4555 37.5471 15.4826 38.3234C14.9931 37.833 14.343 37.5627 13.6517 37.5627C12.9593 37.5627 12.3092 37.833 11.8197 38.3234C11.3313 38.8137 11.0615 39.4672 11.0615 40.1608C11.0615 40.8544 11.3313 41.5067 11.8197 41.9982C12.3248 42.5042 12.9872 42.7577 13.6495 42.7577C14.3141 42.7577 14.9797 42.5031 15.4871 41.9937C17.1708 40.2736 17.6391 34.8697 16.8062 26.7784C16.2498 21.3656 15.8149 16.8564 15.5049 13.2643ZM14.9396 3.50421C15.0221 1.99072 15.6867 1.35294 16.2821 1.26135C16.3379 1.25353 16.3936 1.24906 16.4494 1.24906C17.0972 1.24906 17.7328 1.81871 18.0706 2.72234C18.9147 4.97972 18.0015 7.92293 15.3555 11.4861C15.0165 7.33317 14.8772 4.66251 14.9396 3.50421ZM16.0067 34.2252C10.2754 33.8622 8.11775 29.3396 8.11775 26.4456C8.11775 22.0916 11.0224 18.6268 14.0989 14.9587C14.2014 14.8358 14.3063 14.7119 14.4099 14.5868C14.711 17.9767 15.1102 22.0849 15.6053 26.9024C15.9175 29.9339 16.0257 32.3309 16.0067 34.2252Z" fill="white"/>
</g>
<path d="M11.0336 12.4141C8.11884 16.3793 5.77502 20.1457 4.99114 23.8574C4.20057 27.5992 5.3145 31.7655 7.12199 34.177C3.83596 31.4304 3.12456 26.5314 3.87275 23.3268C4.78151 19.4387 7.59923 15.2322 11.0336 12.4141Z" fill="white"/>
<path d="M7.9291 11.0879C4.7869 15.5602 2.21003 19.7958 1.444 23.9766C0.609944 28.5237 2.56796 33.3356 4.55832 36.0253C0.727023 33.1424 -0.567544 26.9924 0.220793 23.3913C1.1775 19.0206 4.21154 14.2791 7.9291 11.0879Z" fill="white"/>
<path d="M42 28.9646L47.928 13.5086H52.704L58.632 28.9646H53.928L52.632 25.6766H47.976L46.704 28.9646H42ZM48.576 22.4366H52.032L50.304 17.9006L48.576 22.4366Z" fill="white"/>
<path d="M67.4439 29.2846C65.6306 29.2846 64.2333 28.7832 63.2519 27.7806C62.2919 26.7779 61.8119 25.3059 61.8119 23.3646V13.7966H65.2999V23.3646C65.2999 24.4952 65.5773 25.3272 66.1319 25.8606C66.6866 26.3939 67.5399 26.6606 68.6919 26.6606C69.5453 26.6606 70.3346 26.5006 71.0599 26.1806C71.7853 25.8606 72.4146 25.4339 72.9479 24.9006V13.7966H76.4039V28.9646H73.2359L73.0759 27.3966C72.3933 27.9299 71.5826 28.3779 70.6439 28.7406C69.7053 29.1032 68.6386 29.2846 67.4439 29.2846Z" fill="white"/>
<path d="M80.7839 28.9646V13.5086H87.2639C89.5839 13.5086 91.3279 14.1086 92.4959 15.3086C93.6799 16.4926 94.2719 18.4926 94.2719 21.3086C94.2719 23.9646 93.6879 25.9086 92.5199 27.1406C91.3679 28.3566 89.6159 28.9646 87.2639 28.9646H80.7839ZM84.0239 26.4686H86.8079C87.7199 26.4686 88.4879 26.3326 89.1119 26.0606C89.7359 25.7726 90.1999 25.2606 90.5039 24.5246C90.8239 23.7726 90.9839 22.7006 90.9839 21.3086C90.9839 19.9166 90.8399 18.8526 90.5519 18.1166C90.2639 17.3806 89.8159 16.8766 89.2079 16.6046C88.5999 16.3326 87.7999 16.1966 86.8079 16.1966H84.0239V26.4686Z" fill="white"/>
<path d="M108.881 29.2851C106.151 29.2851 100.43 28.6019 99.1499 27.2366C97.8913 25.8712 97.2619 23.9192 97.2619 21.3806C97.2619 18.8419 97.9019 16.8899 99.1819 15.5246C100.462 14.1592 106.172 13.4771 108.881 13.4771C116.22 13.4771 116.725 14.1597 118.005 15.5251C119.285 16.8904 119.925 18.8424 119.925 21.3811C119.925 23.9197 119.285 25.8717 118.005 27.2371C116.747 28.6024 116.241 29.2851 108.881 29.2851ZM108.881 26.3411C110.481 26.3411 114.72 25.9571 115.381 25.1891C116.064 24.3997 116.405 23.1304 116.405 21.3811C116.405 19.6317 116.064 18.3731 115.381 17.6051C114.72 16.8371 110.481 16.4531 108.881 16.4531C107.303 16.4531 102.457 16.8366 101.774 17.6046C101.113 18.3726 100.782 19.6312 100.782 21.3806C100.782 23.1299 101.113 24.3992 101.774 25.1886C102.457 25.9566 107.303 26.3411 108.881 26.3411Z" fill="white"/>
<path d="M122.808 28.9646V13.5086H130.224C132 13.5086 133.304 13.9806 134.136 14.9246C134.968 15.8526 135.384 17.1086 135.384 18.6926C135.384 19.7326 135.112 20.6286 134.568 21.3806C134.04 22.1326 133.288 22.6766 132.312 23.0126C132.568 23.2206 132.768 23.4446 132.912 23.6846C133.072 23.9246 133.232 24.2446 133.392 24.6446L135.264 28.9646H131.904L130.08 24.8126C129.92 24.4606 129.744 24.2126 129.552 24.0686C129.36 23.9246 129.04 23.8526 128.592 23.8526H126.048V28.9646H122.808ZM126.048 21.1646H129.384C130.232 21.1646 130.896 20.9806 131.376 20.6126C131.856 20.2286 132.096 19.5886 132.096 18.6926C132.096 17.8286 131.888 17.1966 131.472 16.7966C131.056 16.3966 130.424 16.1966 129.576 16.1966H126.048V21.1646Z" fill="white"/>
<path d="M143.748 29.2846C142.788 29.2846 141.892 29.1139 141.06 28.7726C140.249 28.4312 139.598 27.9192 139.108 27.2366C138.617 26.5326 138.372 25.6686 138.372 24.6446C138.372 23.1939 138.862 22.0312 139.844 21.1566C140.846 20.2606 142.382 19.8126 144.452 19.8126H149.316V19.1406C149.316 18.4152 149.198 17.8392 148.964 17.4126C148.75 16.9859 148.345 16.6766 147.748 16.4846C147.172 16.2926 146.318 16.1966 145.188 16.1966C143.396 16.1966 141.721 16.4632 140.164 16.9966V14.4046C140.846 14.1272 141.678 13.9032 142.66 13.7326C143.641 13.5619 144.697 13.4766 145.828 13.4766C148.046 13.4766 149.732 13.9246 150.884 14.8206C152.057 15.7166 152.644 17.1779 152.644 19.2046V28.9646H149.668L149.444 27.4286C148.825 28.0259 148.057 28.4846 147.14 28.8046C146.244 29.1246 145.113 29.2846 143.748 29.2846ZM144.676 26.7886C145.721 26.7886 146.628 26.6179 147.396 26.2766C148.185 25.9139 148.825 25.4339 149.316 24.8366V22.1806H144.516C143.492 22.1806 142.745 22.3832 142.276 22.7886C141.828 23.1726 141.604 23.7699 141.604 24.5806C141.604 25.3699 141.87 25.9352 142.404 26.2766C142.937 26.6179 143.694 26.7886 144.676 26.7886Z" fill="white"/>
<circle cx="159.645" cy="16.4766" r="3" fill="#EB9F00"/>
</svg>
